<svg width="22" height="18" viewBox="0 0 22 18" fill="none" xmlns="http://www.w3.org/2000/svg">
<path d="M21.7993 2.28997C21.0206 2.62591 20.1731 2.86768 19.3002 2.96184C20.2065 2.42342 20.8852 1.57279 21.2089 0.569561C20.3585 1.07548 19.4268 1.43023 18.4552 1.61809C18.0492 1.18399 17.5581 0.838158 17.0125 0.602156C16.4669 0.366154 15.8786 0.245035 15.2842 0.246348C12.8792 0.246348 10.945 2.1958 10.945 4.58809C10.945 4.92402 10.9857 5.25996 11.0519 5.58317C7.45074 5.39485 4.23898 3.67444 2.10374 1.04038C1.71467 1.70492 1.51079 2.46157 1.5133 3.23161C1.5133 4.73824 2.27934 6.06672 3.44749 6.84803C2.75908 6.82092 2.08679 6.6317 1.48531 6.29577V6.34921C1.48531 8.459 2.97667 10.2074 4.9643 10.6095C4.5911 10.7065 4.20718 10.756 3.8216 10.7571C3.53911 10.7571 3.27188 10.7291 3.00212 10.691C3.55183 12.4114 5.15262 13.6609 7.05882 13.7017C5.56746 14.8698 3.69944 15.557 1.67109 15.557C1.30716 15.557 0.971221 15.5442 0.622559 15.5035C2.54656 16.7378 4.82941 17.4504 7.28786 17.4504C15.2689 17.4504 19.6361 10.8386 19.6361 5.09963C19.6361 4.9113 19.6361 4.72297 19.6234 4.53464C20.4683 3.91621 21.2089 3.15017 21.7993 2.28997Z" fill="#292742"/>
</svg>
